solid OpenSCAD_Model
  facet normal -1 0 0
    outer loop
      vertex 0 0 0
      vertex 0 0 6
      vertex 0 34 0
    endloop
  endfacet
  facet normal -1 0 0
    outer loop
      vertex 0 34 0
      vertex 0 0 6
      vertex 0 34 6
    endloop
  endfacet
  facet normal 0 -1 0
    outer loop
      vertex 0 0 6
      vertex 0 0 0
      vertex 29 0 0
    endloop
  endfacet
  facet normal 0 -1 0
    outer loop
      vertex 29 0 6
      vertex 0 0 6
      vertex 29 0 0
    endloop
  endfacet
  facet normal 0 0 -1
    outer loop
      vertex 0 0 0
      vertex 0 34 0
      vertex 29 0 0
    endloop
  endfacet
  facet normal 0 0 -1
    outer loop
      vertex 19.4821 27.9708 0
      vertex 0 34 0
      vertex 29 34 0
    endloop
  endfacet
  facet normal 0 0 -1
    outer loop
      vertex 15.1162 23.0427 0
      vertex 0 34 0
      vertex 15.1162 24.9573 0
    endloop
  endfacet
  facet normal 0 0 -1
    outer loop
      vertex 16.006 21.3475 0
      vertex 0 34 0
      vertex 15.1162 23.0427 0
    endloop
  endfacet
  facet normal 0 0 -1
    outer loop
      vertex 29 0 0
      vertex 0 34 0
      vertex 16.006 21.3475 0
    endloop
  endfacet
  facet normal 0 0 -1
    outer loop
      vertex 19.4821 20.0292 0
      vertex 29 0 0
      vertex 17.5816 20.2599 0
    endloop
  endfacet
  facet normal 0 0 -1
    outer loop
      vertex 23 24 0
      vertex 29 34 0
      vertex 22.5418 22.1411 0
    endloop
  endfacet
  facet normal 0 0 -1
    outer loop
      vertex 29 0 0
      vertex 19.4821 20.0292 0
      vertex 21.2723 20.7081 0
    endloop
  endfacet
  facet normal 0 0 -1
    outer loop
      vertex 29 0 0
      vertex 21.2723 20.7081 0
      vertex 22.5418 22.1411 0
    endloop
  endfacet
  facet normal 0 0 -1
    outer loop
      vertex 29 0 0
      vertex 22.5418 22.1411 0
      vertex 29 34 0
    endloop
  endfacet
  facet normal 0 0 -1
    outer loop
      vertex 22.5418 25.8589 0
      vertex 29 34 0
      vertex 23 24 0
    endloop
  endfacet
  facet normal 0 0 -1
    outer loop
      vertex 19.4821 27.9708 0
      vertex 29 34 0
      vertex 21.2723 27.2919 0
    endloop
  endfacet
  facet normal 0 0 -1
    outer loop
      vertex 22.5418 25.8589 0
      vertex 21.2723 27.2919 0
      vertex 29 34 0
    endloop
  endfacet
  facet normal 0 0 -1
    outer loop
      vertex 17.5816 27.7401 0
      vertex 0 34 0
      vertex 19.4821 27.9708 0
    endloop
  endfacet
  facet normal 0 0 -1
    outer loop
      vertex 16.006 26.6525 0
      vertex 0 34 0
      vertex 17.5816 27.7401 0
    endloop
  endfacet
  facet normal 0 0 -1
    outer loop
      vertex 15.1162 24.9573 0
      vertex 0 34 0
      vertex 16.006 26.6525 0
    endloop
  endfacet
  facet normal 0 0 -1
    outer loop
      vertex 17.5816 20.2599 0
      vertex 29 0 0
      vertex 16.006 21.3475 0
    endloop
  endfacet
  facet normal 0 1 0
    outer loop
      vertex 0 34 0
      vertex 0 34 6
      vertex 29 34 0
    endloop
  endfacet
  facet normal 0 1 0
    outer loop
      vertex 29 34 0
      vertex 0 34 6
      vertex 29 34 6
    endloop
  endfacet
  facet normal 0 0 1
    outer loop
      vertex 2 2 6
      vertex 0 0 6
      vertex 29 0 6
    endloop
  endfacet
  facet normal 0 0 1
    outer loop
      vertex 0 34 6
      vertex 0 0 6
      vertex 2 2 6
    endloop
  endfacet
  facet normal 0 0 1
    outer loop
      vertex 3 19 6
      vertex 2 19 6
      vertex 3 15 6
    endloop
  endfacet
  facet normal 0 0 1
    outer loop
      vertex 0 34 6
      vertex 2 2 6
      vertex 2 15 6
    endloop
  endfacet
  facet normal 0 0 1
    outer loop
      vertex 2 19 6
      vertex 2 15 6
      vertex 3 15 6
    endloop
  endfacet
  facet normal 0 0 1
    outer loop
      vertex 2 19 6
      vertex 2 32 6
      vertex 0 34 6
    endloop
  endfacet
  facet normal 0 0 1
    outer loop
      vertex 0 34 6
      vertex 2 15 6
      vertex 2 19 6
    endloop
  endfacet
  facet normal 0 0 1
    outer loop
      vertex 29 34 6
      vertex 0 34 6
      vertex 2 32 6
    endloop
  endfacet
  facet normal 0 0 1
    outer loop
      vertex 29 34 6
      vertex 27 32 6
      vertex 29 0 6
    endloop
  endfacet
  facet normal 0 0 1
    outer loop
      vertex 29 34 6
      vertex 2 32 6
      vertex 27 32 6
    endloop
  endfacet
  facet normal 0 0 1
    outer loop
      vertex 27 32 6
      vertex 27 19 6
      vertex 29 0 6
    endloop
  endfacet
  facet normal 0 0 1
    outer loop
      vertex 27 19 6
      vertex 27 15 6
      vertex 29 0 6
    endloop
  endfacet
  facet normal 0 0 1
    outer loop
      vertex 27 19 6
      vertex 26 19 6
      vertex 27 15 6
    endloop
  endfacet
  facet normal 0 0 1
    outer loop
      vertex 26 15 6
      vertex 27 15 6
      vertex 26 19 6
    endloop
  endfacet
  facet normal 0 0 1
    outer loop
      vertex 27 15 6
      vertex 27 2 6
      vertex 29 0 6
    endloop
  endfacet
  facet normal 0 0 1
    outer loop
      vertex 27 2 6
      vertex 2 2 6
      vertex 29 0 6
    endloop
  endfacet
  facet normal 1 0 0
    outer loop
      vertex 29 0 6
      vertex 29 0 0
      vertex 29 34 0
    endloop
  endfacet
  facet normal 1 0 0
    outer loop
      vertex 29 34 6
      vertex 29 0 6
      vertex 29 34 0
    endloop
  endfacet
  facet normal 1 0 0
    outer loop
      vertex 15.1162 24.9573 0
      vertex 15.1162 24.9573 2
      vertex 15.1162 23.0427 2
    endloop
  endfacet
  facet normal 1 0 0
    outer loop
      vertex 15.1162 23.0427 0
      vertex 15.1162 24.9573 0
      vertex 15.1162 23.0427 2
    endloop
  endfacet
  facet normal 0.885456 -0.464723 0
    outer loop
      vertex 16.006 26.6525 0
      vertex 16.006 26.6525 2
      vertex 15.1162 24.9573 2
    endloop
  endfacet
  facet normal 0.885456 -0.464723 0
    outer loop
      vertex 15.1162 24.9573 0
      vertex 16.006 26.6525 0
      vertex 15.1162 24.9573 2
    endloop
  endfacet
  facet normal 0.568065 -0.822984 0
    outer loop
      vertex 17.5816 27.7401 0
      vertex 17.5816 27.7401 2
      vertex 16.006 26.6525 2
    endloop
  endfacet
  facet normal 0.568065 -0.822984 0
    outer loop
      vertex 16.006 26.6525 0
      vertex 17.5816 27.7401 0
      vertex 16.006 26.6525 2
    endloop
  endfacet
  facet normal 0.120536 -0.992709 0
    outer loop
      vertex 19.4821 27.9708 0
      vertex 19.4821 27.9708 2
      vertex 17.5816 27.7401 2
    endloop
  endfacet
  facet normal 0.120536 -0.992709 0
    outer loop
      vertex 17.5816 27.7401 0
      vertex 19.4821 27.9708 0
      vertex 17.5816 27.7401 2
    endloop
  endfacet
  facet normal -0.354605 -0.935016 0
    outer loop
      vertex 21.2723 27.2919 0
      vertex 21.2723 27.2919 2
      vertex 19.4821 27.9708 2
    endloop
  endfacet
  facet normal -0.354605 -0.935016 0
    outer loop
      vertex 19.4821 27.9708 0
      vertex 21.2723 27.2919 0
      vertex 19.4821 27.9708 2
    endloop
  endfacet
  facet normal -0.748511 -0.663123 0
    outer loop
      vertex 22.5418 25.8589 2
      vertex 21.2723 27.2919 2
      vertex 22.5418 25.8589 0
    endloop
  endfacet
  facet normal -0.748511 -0.663123 0
    outer loop
      vertex 22.5418 25.8589 0
      vertex 21.2723 27.2919 2
      vertex 21.2723 27.2919 0
    endloop
  endfacet
  facet normal -0.970942 -0.239316 0
    outer loop
      vertex 23 24 2
      vertex 22.5418 25.8589 2
      vertex 23 24 0
    endloop
  endfacet
  facet normal -0.970942 -0.239316 0
    outer loop
      vertex 23 24 0
      vertex 22.5418 25.8589 2
      vertex 22.5418 25.8589 0
    endloop
  endfacet
  facet normal -0.970942 0.239316 0
    outer loop
      vertex 23 24 2
      vertex 23 24 0
      vertex 22.5418 22.1411 2
    endloop
  endfacet
  facet normal -0.970942 0.239316 0
    outer loop
      vertex 22.5418 22.1411 2
      vertex 23 24 0
      vertex 22.5418 22.1411 0
    endloop
  endfacet
  facet normal -0.748511 0.663123 0
    outer loop
      vertex 22.5418 22.1411 2
      vertex 22.5418 22.1411 0
      vertex 21.2723 20.7081 2
    endloop
  endfacet
  facet normal -0.748511 0.663123 0
    outer loop
      vertex 21.2723 20.7081 2
      vertex 22.5418 22.1411 0
      vertex 21.2723 20.7081 0
    endloop
  endfacet
  facet normal -0.354605 0.935016 0
    outer loop
      vertex 21.2723 20.7081 2
      vertex 21.2723 20.7081 0
      vertex 19.4821 20.0292 2
    endloop
  endfacet
  facet normal -0.354605 0.935016 0
    outer loop
      vertex 19.4821 20.0292 2
      vertex 21.2723 20.7081 0
      vertex 19.4821 20.0292 0
    endloop
  endfacet
  facet normal 0.120536 0.992709 0
    outer loop
      vertex 19.4821 20.0292 2
      vertex 19.4821 20.0292 0
      vertex 17.5816 20.2599 2
    endloop
  endfacet
  facet normal 0.120536 0.992709 0
    outer loop
      vertex 17.5816 20.2599 2
      vertex 19.4821 20.0292 0
      vertex 17.5816 20.2599 0
    endloop
  endfacet
  facet normal 0.568065 0.822984 0
    outer loop
      vertex 17.5816 20.2599 2
      vertex 17.5816 20.2599 0
      vertex 16.006 21.3475 2
    endloop
  endfacet
  facet normal 0.568065 0.822984 0
    outer loop
      vertex 16.006 21.3475 2
      vertex 17.5816 20.2599 0
      vertex 16.006 21.3475 0
    endloop
  endfacet
  facet normal 0.885456 0.464723 0
    outer loop
      vertex 15.1162 23.0427 2
      vertex 16.006 21.3475 2
      vertex 16.006 21.3475 0
    endloop
  endfacet
  facet normal 0.885456 0.464723 0
    outer loop
      vertex 15.1162 23.0427 0
      vertex 15.1162 23.0427 2
      vertex 16.006 21.3475 0
    endloop
  endfacet
  facet normal 1 0 0
    outer loop
      vertex 2 7 4
      vertex 2 7 1
      vertex 2 27 1
    endloop
  endfacet
  facet normal 1 0 0
    outer loop
      vertex 2 32 6
      vertex 2 7 4
      vertex 2 27 4
    endloop
  endfacet
  facet normal 1 0 0
    outer loop
      vertex 2 27 4
      vertex 2 7 4
      vertex 2 27 1
    endloop
  endfacet
  facet normal 1 0 0
    outer loop
      vertex 2 32 6
      vertex 2 27 4
      vertex 2 32 4
    endloop
  endfacet
  facet normal 1 0 0
    outer loop
      vertex 2 19 5
      vertex 2 7 4
      vertex 2 32 6
    endloop
  endfacet
  facet normal 1 0 0
    outer loop
      vertex 2 19 6
      vertex 2 19 5
      vertex 2 32 6
    endloop
  endfacet
  facet normal 1 0 0
    outer loop
      vertex 2 15 5
      vertex 2 7 4
      vertex 2 19 5
    endloop
  endfacet
  facet normal 1 0 0
    outer loop
      vertex 2 2 6
      vertex 2 7 4
      vertex 2 15 6
    endloop
  endfacet
  facet normal 1 0 0
    outer loop
      vertex 2 15 5
      vertex 2 15 6
      vertex 2 7 4
    endloop
  endfacet
  facet normal 1 0 0
    outer loop
      vertex 2 2 4
      vertex 2 7 4
      vertex 2 2 6
    endloop
  endfacet
  facet normal 0 1 0
    outer loop
      vertex 27 2 6
      vertex 27 2 4
      vertex 2 2 6
    endloop
  endfacet
  facet normal 0 1 0
    outer loop
      vertex 2 2 6
      vertex 27 2 4
      vertex 22 2 4
    endloop
  endfacet
  facet normal 0 1 0
    outer loop
      vertex 2 2 6
      vertex 22 2 4
      vertex 22 2 1
    endloop
  endfacet
  facet normal 0 1 0
    outer loop
      vertex 7 2 4
      vertex 22 2 1
      vertex 7 2 1
    endloop
  endfacet
  facet normal 0 1 0
    outer loop
      vertex 2 2 6
      vertex 22 2 1
      vertex 7 2 4
    endloop
  endfacet
  facet normal 0 1 0
    outer loop
      vertex 2 2 4
      vertex 2 2 6
      vertex 7 2 4
    endloop
  endfacet
  facet normal -1 0 0
    outer loop
      vertex 27 15 6
      vertex 27 15 5
      vertex 27 2 6
    endloop
  endfacet
  facet normal -1 0 0
    outer loop
      vertex 27 24 4
      vertex 27 15 5
      vertex 27 32 4
    endloop
  endfacet
  facet normal -1 0 0
    outer loop
      vertex 27 32 6
      vertex 27 19 5
      vertex 27 19 6
    endloop
  endfacet
  facet normal -1 0 0
    outer loop
      vertex 27 32 4
      vertex 27 19 5
      vertex 27 32 6
    endloop
  endfacet
  facet normal -1 0 0
    outer loop
      vertex 27 15 5
      vertex 27 19 5
      vertex 27 32 4
    endloop
  endfacet
  facet normal -1 0 0
    outer loop
      vertex 27 2 6
      vertex 27 15 5
      vertex 27 24 4
    endloop
  endfacet
  facet normal -1 0 0
    outer loop
      vertex 27 2 6
      vertex 27 24 4
      vertex 27 18.022 4
    endloop
  endfacet
  facet normal -1 0 0
    outer loop
      vertex 27 2 6
      vertex 27 18.022 4
      vertex 27 18.022 1
    endloop
  endfacet
  facet normal -1 0 0
    outer loop
      vertex 27 7 4
      vertex 27 18.022 1
      vertex 27 7 1
    endloop
  endfacet
  facet normal -1 0 0
    outer loop
      vertex 27 2 6
      vertex 27 18.022 1
      vertex 27 7 4
    endloop
  endfacet
  facet normal -1 0 0
    outer loop
      vertex 27 2 4
      vertex 27 2 6
      vertex 27 7 4
    endloop
  endfacet
  facet normal 0 -1 0
    outer loop
      vertex 26 15 6
      vertex 26 15 5
      vertex 27 15 5
    endloop
  endfacet
  facet normal 0 -1 0
    outer loop
      vertex 27 15 6
      vertex 26 15 6
      vertex 27 15 5
    endloop
  endfacet
  facet normal -1 0 0
    outer loop
      vertex 26 15 5
      vertex 26 15 6
      vertex 26 19 5
    endloop
  endfacet
  facet normal -1 0 0
    outer loop
      vertex 26 19 5
      vertex 26 15 6
      vertex 26 19 6
    endloop
  endfacet
  facet normal 0 1 0
    outer loop
      vertex 26 19 5
      vertex 26 19 6
      vertex 27 19 5
    endloop
  endfacet
  facet normal 0 1 0
    outer loop
      vertex 27 19 5
      vertex 26 19 6
      vertex 27 19 6
    endloop
  endfacet
  facet normal 0 -1 0
    outer loop
      vertex 7 32 4
      vertex 7 32 1
      vertex 13.0912 32 1
    endloop
  endfacet
  facet normal 0 -1 0
    outer loop
      vertex 27 32 6
      vertex 7 32 4
      vertex 13.0912 32 4
    endloop
  endfacet
  facet normal 0 -1 0
    outer loop
      vertex 13.0912 32 4
      vertex 7 32 4
      vertex 13.0912 32 1
    endloop
  endfacet
  facet normal 0 -1 0
    outer loop
      vertex 27 32 6
      vertex 13.0912 32 4
      vertex 27 32 4
    endloop
  endfacet
  facet normal 0 -1 0
    outer loop
      vertex 2 32 6
      vertex 7 32 4
      vertex 27 32 6
    endloop
  endfacet
  facet normal 0 -1 0
    outer loop
      vertex 2 32 4
      vertex 7 32 4
      vertex 2 32 6
    endloop
  endfacet
  facet normal 0 1 0
    outer loop
      vertex 2 19 5
      vertex 2 19 6
      vertex 3 19 5
    endloop
  endfacet
  facet normal 0 1 0
    outer loop
      vertex 3 19 5
      vertex 2 19 6
      vertex 3 19 6
    endloop
  endfacet
  facet normal 1 0 0
    outer loop
      vertex 3 15 6
      vertex 3 15 5
      vertex 3 19 5
    endloop
  endfacet
  facet normal 1 0 0
    outer loop
      vertex 3 19 6
      vertex 3 15 6
      vertex 3 19 5
    endloop
  endfacet
  facet normal 0 -1 0
    outer loop
      vertex 2 15 6
      vertex 2 15 5
      vertex 3 15 5
    endloop
  endfacet
  facet normal 0 -1 0
    outer loop
      vertex 3 15 6
      vertex 2 15 6
      vertex 3 15 5
    endloop
  endfacet
  facet normal 0 0 1
    outer loop
      vertex 11.2325 22.0855 2
      vertex 11.9164 20.2822 2
      vertex 13.0119 18.695 2
    endloop
  endfacet
  facet normal 0 0 1
    outer loop
      vertex 16.1632 16.5199 2
      vertex 11.2325 22.0855 2
      vertex 14.4555 17.4161 2
    endloop
  endfacet
  facet normal 0 0 1
    outer loop
      vertex 14.4555 17.4161 2
      vertex 11.2325 22.0855 2
      vertex 13.0119 18.695 2
    endloop
  endfacet
  facet normal 0 0 1
    outer loop
      vertex 18.0357 16.0583 2
      vertex 11.2325 22.0855 2
      vertex 16.1632 16.5199 2
    endloop
  endfacet
  facet normal 0 0 1
    outer loop
      vertex 19.9643 16.0583 2
      vertex 11.2325 22.0855 2
      vertex 18.0357 16.0583 2
    endloop
  endfacet
  facet normal 0 0 1
    outer loop
      vertex 21.8368 16.5199 2
      vertex 11.2325 22.0855 2
      vertex 19.9643 16.0583 2
    endloop
  endfacet
  facet normal 0 0 1
    outer loop
      vertex 23.5445 17.4161 2
      vertex 11.2325 22.0855 2
      vertex 21.8368 16.5199 2
    endloop
  endfacet
  facet normal 0 0 1
    outer loop
      vertex 17.5816 20.2599 2
      vertex 11.2325 22.0855 2
      vertex 23.5445 17.4161 2
    endloop
  endfacet
  facet normal 0 0 1
    outer loop
      vertex 17.5816 20.2599 2
      vertex 16.006 21.3475 2
      vertex 11.2325 22.0855 2
    endloop
  endfacet
  facet normal 0 0 1
    outer loop
      vertex 21.2723 20.7081 2
      vertex 19.4821 20.0292 2
      vertex 24.9881 18.695 2
    endloop
  endfacet
  facet normal 0 0 1
    outer loop
      vertex 22.5418 22.1411 2
      vertex 26.0836 20.2822 2
      vertex 26.7675 22.0855 2
    endloop
  endfacet
  facet normal 0 0 1
    outer loop
      vertex 16.006 21.3475 2
      vertex 15.1162 23.0427 2
      vertex 11.2325 22.0855 2
    endloop
  endfacet
  facet normal 0 0 1
    outer loop
      vertex 19.4821 27.9708 2
      vertex 24.9881 29.305 2
      vertex 23.5445 30.5839 2
    endloop
  endfacet
  facet normal 0 0 1
    outer loop
      vertex 17.5816 27.7401 2
      vertex 19.4821 27.9708 2
      vertex 21.8368 31.4801 2
    endloop
  endfacet
  facet normal 0 0 1
    outer loop
      vertex 18.0357 31.9417 2
      vertex 11.2325 22.0855 2
      vertex 19.9643 31.9417 2
    endloop
  endfacet
  facet normal 0 0 1
    outer loop
      vertex 16.1632 31.4801 2
      vertex 11.2325 22.0855 2
      vertex 18.0357 31.9417 2
    endloop
  endfacet
  facet normal 0 0 1
    outer loop
      vertex 14.4555 30.5839 2
      vertex 11.2325 22.0855 2
      vertex 16.1632 31.4801 2
    endloop
  endfacet
  facet normal 0 0 1
    outer loop
      vertex 13.0119 29.305 2
      vertex 11.2325 22.0855 2
      vertex 14.4555 30.5839 2
    endloop
  endfacet
  facet normal 0 0 1
    outer loop
      vertex 11.9164 27.7178 2
      vertex 11.2325 22.0855 2
      vertex 13.0119 29.305 2
    endloop
  endfacet
  facet normal 0 0 1
    outer loop
      vertex 11.2325 25.9145 2
      vertex 11.2325 22.0855 2
      vertex 11.9164 27.7178 2
    endloop
  endfacet
  facet normal 0 0 1
    outer loop
      vertex 11 24 2
      vertex 11.2325 22.0855 2
      vertex 11.2325 25.9145 2
    endloop
  endfacet
  facet normal 0 0 1
    outer loop
      vertex 22.5418 25.8589 2
      vertex 23 24 2
      vertex 26.7675 25.9145 2
    endloop
  endfacet
  facet normal 0 0 1
    outer loop
      vertex 19.4821 27.9708 2
      vertex 21.2723 27.2919 2
      vertex 24.9881 29.305 2
    endloop
  endfacet
  facet normal 0 0 1
    outer loop
      vertex 19.9643 31.9417 2
      vertex 16.006 26.6525 2
      vertex 21.8368 31.4801 2
    endloop
  endfacet
  facet normal 0 0 1
    outer loop
      vertex 19.9643 31.9417 2
      vertex 11.2325 22.0855 2
      vertex 16.006 26.6525 2
    endloop
  endfacet
  facet normal 0 0 1
    outer loop
      vertex 16.006 26.6525 2
      vertex 17.5816 27.7401 2
      vertex 21.8368 31.4801 2
    endloop
  endfacet
  facet normal 0 0 1
    outer loop
      vertex 21.8368 31.4801 2
      vertex 19.4821 27.9708 2
      vertex 23.5445 30.5839 2
    endloop
  endfacet
  facet normal 0 0 1
    outer loop
      vertex 24.9881 29.305 2
      vertex 21.2723 27.2919 2
      vertex 26.0836 27.7178 2
    endloop
  endfacet
  facet normal 0 0 1
    outer loop
      vertex 15.1162 24.9573 2
      vertex 16.006 26.6525 2
      vertex 11.2325 22.0855 2
    endloop
  endfacet
  facet normal 0 0 1
    outer loop
      vertex 26.0836 27.7178 2
      vertex 22.5418 25.8589 2
      vertex 26.7675 25.9145 2
    endloop
  endfacet
  facet normal 0 0 1
    outer loop
      vertex 26.7675 25.9145 2
      vertex 23 24 2
      vertex 27 24 2
    endloop
  endfacet
  facet normal 0 0 1
    outer loop
      vertex 27 24 2
      vertex 22.5418 22.1411 2
      vertex 26.7675 22.0855 2
    endloop
  endfacet
  facet normal 0 0 1
    outer loop
      vertex 26.0836 20.2822 2
      vertex 21.2723 20.7081 2
      vertex 24.9881 18.695 2
    endloop
  endfacet
  facet normal 0 0 1
    outer loop
      vertex 24.9881 18.695 2
      vertex 19.4821 20.0292 2
      vertex 23.5445 17.4161 2
    endloop
  endfacet
  facet normal 0 0 1
    outer loop
      vertex 19.4821 20.0292 2
      vertex 17.5816 20.2599 2
      vertex 23.5445 17.4161 2
    endloop
  endfacet
  facet normal 0 0 1
    outer loop
      vertex 21.2723 27.2919 2
      vertex 22.5418 25.8589 2
      vertex 26.0836 27.7178 2
    endloop
  endfacet
  facet normal 0 0 1
    outer loop
      vertex 22.5418 22.1411 2
      vertex 21.2723 20.7081 2
      vertex 26.0836 20.2822 2
    endloop
  endfacet
  facet normal 0 0 1
    outer loop
      vertex 23 24 2
      vertex 22.5418 22.1411 2
      vertex 27 24 2
    endloop
  endfacet
  facet normal 0 0 1
    outer loop
      vertex 15.1162 23.0427 2
      vertex 15.1162 24.9573 2
      vertex 11.2325 22.0855 2
    endloop
  endfacet
  facet normal 0 1 0
    outer loop
      vertex 2 7 1
      vertex 2 7 4
      vertex 7 7 1
    endloop
  endfacet
  facet normal 0 1 0
    outer loop
      vertex 7 7 1
      vertex 2 7 4
      vertex 7 7 4
    endloop
  endfacet
  facet normal 0 0 1
    outer loop
      vertex 2 7 4
      vertex 2 2 4
      vertex 7 2 4
    endloop
  endfacet
  facet normal 0 0 1
    outer loop
      vertex 7 7 4
      vertex 2 7 4
      vertex 7 2 4
    endloop
  endfacet
  facet normal 0 0 -1
    outer loop
      vertex 2 15 5
      vertex 2 19 5
      vertex 3 15 5
    endloop
  endfacet
  facet normal 0 0 -1
    outer loop
      vertex 3 15 5
      vertex 2 19 5
      vertex 3 19 5
    endloop
  endfacet
  facet normal 0 0 1
    outer loop
      vertex 2 32 4
      vertex 2 27 4
      vertex 7 27 4
    endloop
  endfacet
  facet normal 0 0 1
    outer loop
      vertex 7 32 4
      vertex 2 32 4
      vertex 7 27 4
    endloop
  endfacet
  facet normal 0 -1 0
    outer loop
      vertex 2 27 4
      vertex 2 27 1
      vertex 7 27 1
    endloop
  endfacet
  facet normal 0 -1 0
    outer loop
      vertex 7 27 4
      vertex 2 27 4
      vertex 7 27 1
    endloop
  endfacet
  facet normal 0 0 1
    outer loop
      vertex 7 7 1
      vertex 7 2 1
      vertex 22 2 1
    endloop
  endfacet
  facet normal 0 0 1
    outer loop
      vertex 24 15.3397 1
      vertex 7 7 1
      vertex 22 7 1
    endloop
  endfacet
  facet normal 0 0 1
    outer loop
      vertex 22 7 1
      vertex 7 7 1
      vertex 22 2 1
    endloop
  endfacet
  facet normal 0 0 1
    outer loop
      vertex 27 18.022 1
      vertex 22 7 1
      vertex 27 7 1
    endloop
  endfacet
  facet normal 0 0 1
    outer loop
      vertex 27 18.022 1
      vertex 25.6913 16.5686 1
      vertex 22 7 1
    endloop
  endfacet
  facet normal 0 0 1
    outer loop
      vertex 25.6913 16.5686 1
      vertex 24 15.3397 1
      vertex 22 7 1
    endloop
  endfacet
  facet normal 0 0 1
    outer loop
      vertex 22.0902 14.4894 1
      vertex 7 7 1
      vertex 24 15.3397 1
    endloop
  endfacet
  facet normal 0 0 1
    outer loop
      vertex 20.0453 14.0548 1
      vertex 17.9547 14.0548 1
      vertex 7 7 1
    endloop
  endfacet
  facet normal 0 0 1
    outer loop
      vertex 15.9098 14.4894 1
      vertex 7 7 1
      vertex 17.9547 14.0548 1
    endloop
  endfacet
  facet normal 0 0 1
    outer loop
      vertex 14 15.3397 1
      vertex 7 7 1
      vertex 15.9098 14.4894 1
    endloop
  endfacet
  facet normal 0 0 1
    outer loop
      vertex 12.3087 16.5686 1
      vertex 7 7 1
      vertex 14 15.3397 1
    endloop
  endfacet
  facet normal 0 0 1
    outer loop
      vertex 10.9098 18.1221 1
      vertex 7 7 1
      vertex 12.3087 16.5686 1
    endloop
  endfacet
  facet normal 0 0 1
    outer loop
      vertex 9.86454 19.9326 1
      vertex 7 7 1
      vertex 10.9098 18.1221 1
    endloop
  endfacet
  facet normal 0 0 1
    outer loop
      vertex 9.21852 21.9209 1
      vertex 7 7 1
      vertex 9.86454 19.9326 1
    endloop
  endfacet
  facet normal 0 0 1
    outer loop
      vertex 9 24 1
      vertex 7 7 1
      vertex 9.21852 21.9209 1
    endloop
  endfacet
  facet normal 0 0 1
    outer loop
      vertex 9.21852 26.0791 1
      vertex 7 7 1
      vertex 9 24 1
    endloop
  endfacet
  facet normal 0 0 1
    outer loop
      vertex 7 27 1
      vertex 7 7 1
      vertex 9.21852 26.0791 1
    endloop
  endfacet
  facet normal 0 0 1
    outer loop
      vertex 7 32 1
      vertex 9.21852 26.0791 1
      vertex 9.86454 28.0674 1
    endloop
  endfacet
  facet normal 0 0 1
    outer loop
      vertex 7 32 1
      vertex 9.86454 28.0674 1
      vertex 10.9098 29.8779 1
    endloop
  endfacet
  facet normal 0 0 1
    outer loop
      vertex 7 32 1
      vertex 10.9098 29.8779 1
      vertex 12.3087 31.4314 1
    endloop
  endfacet
  facet normal 0 0 1
    outer loop
      vertex 7 32 1
      vertex 12.3087 31.4314 1
      vertex 13.0912 32 1
    endloop
  endfacet
  facet normal 0 0 1
    outer loop
      vertex 2 27 1
      vertex 7 7 1
      vertex 7 27 1
    endloop
  endfacet
  facet normal 0 0 1
    outer loop
      vertex 7 32 1
      vertex 7 27 1
      vertex 9.21852 26.0791 1
    endloop
  endfacet
  facet normal 0 0 1
    outer loop
      vertex 22.0902 14.4894 1
      vertex 20.0453 14.0548 1
      vertex 7 7 1
    endloop
  endfacet
  facet normal 0 0 1
    outer loop
      vertex 2 7 1
      vertex 7 7 1
      vertex 2 27 1
    endloop
  endfacet
  facet normal 1 0 0
    outer loop
      vertex 7 2 4
      vertex 7 2 1
      vertex 7 7 1
    endloop
  endfacet
  facet normal 1 0 0
    outer loop
      vertex 7 7 4
      vertex 7 2 4
      vertex 7 7 1
    endloop
  endfacet
  facet normal -1 0 0
    outer loop
      vertex 22 2 1
      vertex 22 2 4
      vertex 22 7 1
    endloop
  endfacet
  facet normal -1 0 0
    outer loop
      vertex 22 7 1
      vertex 22 2 4
      vertex 22 7 4
    endloop
  endfacet
  facet normal 0 0 1
    outer loop
      vertex 22 7 4
      vertex 22 2 4
      vertex 27 2 4
    endloop
  endfacet
  facet normal 0 0 1
    outer loop
      vertex 27 7 4
      vertex 22 7 4
      vertex 27 2 4
    endloop
  endfacet
  facet normal 0 1 0
    outer loop
      vertex 22 7 1
      vertex 22 7 4
      vertex 27 7 1
    endloop
  endfacet
  facet normal 0 1 0
    outer loop
      vertex 27 7 1
      vertex 22 7 4
      vertex 27 7 4
    endloop
  endfacet
  facet normal 0.743145 -0.669131 0
    outer loop
      vertex 25.6913 16.5686 4
      vertex 25.6913 16.5686 1
      vertex 27 18.022 1
    endloop
  endfacet
  facet normal 0.743145 -0.669131 0
    outer loop
      vertex 27 18.022 4
      vertex 25.6913 16.5686 4
      vertex 27 18.022 1
    endloop
  endfacet
  facet normal 0 0 1
    outer loop
      vertex 9.21852 26.0791 4
      vertex 9 24 4
      vertex 9.21852 21.9209 4
    endloop
  endfacet
  facet normal 0 0 1
    outer loop
      vertex 10.9098 18.1221 4
      vertex 9.21852 26.0791 4
      vertex 9.86454 19.9326 4
    endloop
  endfacet
  facet normal 0 0 1
    outer loop
      vertex 9.86454 19.9326 4
      vertex 9.21852 26.0791 4
      vertex 9.21852 21.9209 4
    endloop
  endfacet
  facet normal 0 0 1
    outer loop
      vertex 12.3087 16.5686 4
      vertex 9.21852 26.0791 4
      vertex 10.9098 18.1221 4
    endloop
  endfacet
  facet normal 0 0 1
    outer loop
      vertex 14 15.3397 4
      vertex 9.21852 26.0791 4
      vertex 12.3087 16.5686 4
    endloop
  endfacet
  facet normal 0 0 1
    outer loop
      vertex 11.9164 20.2822 4
      vertex 9.21852 26.0791 4
      vertex 14 15.3397 4
    endloop
  endfacet
  facet normal 0 0 1
    outer loop
      vertex 14.4555 17.4161 4
      vertex 13.0119 18.695 4
      vertex 15.9098 14.4894 4
    endloop
  endfacet
  facet normal 0 0 1
    outer loop
      vertex 19.9643 16.0583 4
      vertex 18.0357 16.0583 4
      vertex 20.0453 14.0548 4
    endloop
  endfacet
  facet normal 0 0 1
    outer loop
      vertex 21.8368 16.5199 4
      vertex 19.9643 16.0583 4
      vertex 22.0902 14.4894 4
    endloop
  endfacet
  facet normal 0 0 1
    outer loop
      vertex 23.5445 17.4161 4
      vertex 21.8368 16.5199 4
      vertex 24 15.3397 4
    endloop
  endfacet
  facet normal 0 0 1
    outer loop
      vertex 24.9881 18.695 4
      vertex 23.5445 17.4161 4
      vertex 25.6913 16.5686 4
    endloop
  endfacet
  facet normal 0 0 1
    outer loop
      vertex 27 24 4
      vertex 26.7675 22.0855 4
      vertex 27 18.022 4
    endloop
  endfacet
  facet normal 0 0 1
    outer loop
      vertex 26.7675 22.0855 4
      vertex 26.0836 20.2822 4
      vertex 27 18.022 4
    endloop
  endfacet
  facet normal 0 0 1
    outer loop
      vertex 27 18.022 4
      vertex 24.9881 18.695 4
      vertex 25.6913 16.5686 4
    endloop
  endfacet
  facet normal 0 0 1
    outer loop
      vertex 25.6913 16.5686 4
      vertex 23.5445 17.4161 4
      vertex 24 15.3397 4
    endloop
  endfacet
  facet normal 0 0 1
    outer loop
      vertex 24 15.3397 4
      vertex 21.8368 16.5199 4
      vertex 22.0902 14.4894 4
    endloop
  endfacet
  facet normal 0 0 1
    outer loop
      vertex 22.0902 14.4894 4
      vertex 19.9643 16.0583 4
      vertex 20.0453 14.0548 4
    endloop
  endfacet
  facet normal 0 0 1
    outer loop
      vertex 20.0453 14.0548 4
      vertex 18.0357 16.0583 4
      vertex 17.9547 14.0548 4
    endloop
  endfacet
  facet normal 0 0 1
    outer loop
      vertex 17.9547 14.0548 4
      vertex 16.1632 16.5199 4
      vertex 15.9098 14.4894 4
    endloop
  endfacet
  facet normal 0 0 1
    outer loop
      vertex 16.1632 16.5199 4
      vertex 14.4555 17.4161 4
      vertex 15.9098 14.4894 4
    endloop
  endfacet
  facet normal 0 0 1
    outer loop
      vertex 15.9098 14.4894 4
      vertex 13.0119 18.695 4
      vertex 14 15.3397 4
    endloop
  endfacet
  facet normal 0 0 1
    outer loop
      vertex 13.0119 18.695 4
      vertex 11.9164 20.2822 4
      vertex 14 15.3397 4
    endloop
  endfacet
  facet normal 0 0 1
    outer loop
      vertex 11.2325 22.0855 4
      vertex 9.21852 26.0791 4
      vertex 11.9164 20.2822 4
    endloop
  endfacet
  facet normal 0 0 1
    outer loop
      vertex 11.9164 27.7178 4
      vertex 9.21852 26.0791 4
      vertex 11.2325 25.9145 4
    endloop
  endfacet
  facet normal 0 0 1
    outer loop
      vertex 13.0119 29.305 4
      vertex 9.21852 26.0791 4
      vertex 11.9164 27.7178 4
    endloop
  endfacet
  facet normal 0 0 1
    outer loop
      vertex 14.4555 30.5839 4
      vertex 9.21852 26.0791 4
      vertex 13.0119 29.305 4
    endloop
  endfacet
  facet normal 0 0 1
    outer loop
      vertex 13.0912 32 4
      vertex 9.21852 26.0791 4
      vertex 14.4555 30.5839 4
    endloop
  endfacet
  facet normal 0 0 1
    outer loop
      vertex 13.0912 32 4
      vertex 14.4555 30.5839 4
      vertex 16.1632 31.4801 4
    endloop
  endfacet
  facet normal 0 0 1
    outer loop
      vertex 27 32 4
      vertex 13.0912 32 4
      vertex 18.0357 31.9417 4
    endloop
  endfacet
  facet normal 0 0 1
    outer loop
      vertex 27 32 4
      vertex 18.0357 31.9417 4
      vertex 19.9643 31.9417 4
    endloop
  endfacet
  facet normal 0 0 1
    outer loop
      vertex 27 32 4
      vertex 19.9643 31.9417 4
      vertex 21.8368 31.4801 4
    endloop
  endfacet
  facet normal 0 0 1
    outer loop
      vertex 27 32 4
      vertex 21.8368 31.4801 4
      vertex 23.5445 30.5839 4
    endloop
  endfacet
  facet normal 0 0 1
    outer loop
      vertex 27 32 4
      vertex 23.5445 30.5839 4
      vertex 24.9881 29.305 4
    endloop
  endfacet
  facet normal 0 0 1
    outer loop
      vertex 27 32 4
      vertex 24.9881 29.305 4
      vertex 26.0836 27.7178 4
    endloop
  endfacet
  facet normal 0 0 1
    outer loop
      vertex 27 32 4
      vertex 26.0836 27.7178 4
      vertex 26.7675 25.9145 4
    endloop
  endfacet
  facet normal 0 0 1
    outer loop
      vertex 27 24 4
      vertex 27 32 4
      vertex 26.7675 25.9145 4
    endloop
  endfacet
  facet normal 0 0 1
    outer loop
      vertex 18.0357 31.9417 4
      vertex 13.0912 32 4
      vertex 16.1632 31.4801 4
    endloop
  endfacet
  facet normal 0 0 1
    outer loop
      vertex 12.3087 31.4314 4
      vertex 9.21852 26.0791 4
      vertex 13.0912 32 4
    endloop
  endfacet
  facet normal 0 0 1
    outer loop
      vertex 10.9098 29.8779 4
      vertex 9.21852 26.0791 4
      vertex 12.3087 31.4314 4
    endloop
  endfacet
  facet normal 0 0 1
    outer loop
      vertex 9.86454 28.0674 4
      vertex 9.21852 26.0791 4
      vertex 10.9098 29.8779 4
    endloop
  endfacet
  facet normal 0 0 1
    outer loop
      vertex 26.0836 20.2822 4
      vertex 24.9881 18.695 4
      vertex 27 18.022 4
    endloop
  endfacet
  facet normal 0 0 1
    outer loop
      vertex 18.0357 16.0583 4
      vertex 16.1632 16.5199 4
      vertex 17.9547 14.0548 4
    endloop
  endfacet
  facet normal 0 0 1
    outer loop
      vertex 11.2325 22.0855 4
      vertex 11 24 4
      vertex 9.21852 26.0791 4
    endloop
  endfacet
  facet normal 0 0 1
    outer loop
      vertex 11 24 4
      vertex 11.2325 25.9145 4
      vertex 9.21852 26.0791 4
    endloop
  endfacet
  facet normal -0.992709 0.120536 0
    outer loop
      vertex 27 24 4
      vertex 27 24 2
      vertex 26.7675 22.0855 4
    endloop
  endfacet
  facet normal -0.992709 0.120536 0
    outer loop
      vertex 26.7675 22.0855 4
      vertex 27 24 2
      vertex 26.7675 22.0855 2
    endloop
  endfacet
  facet normal -0.992709 -0.120536 0
    outer loop
      vertex 27 24 4
      vertex 26.7675 25.9145 4
      vertex 27 24 2
    endloop
  endfacet
  facet normal -0.992709 -0.120536 0
    outer loop
      vertex 27 24 2
      vertex 26.7675 25.9145 4
      vertex 26.7675 25.9145 2
    endloop
  endfacet
  facet normal 0 0 -1
    outer loop
      vertex 26 15 5
      vertex 26 19 5
      vertex 27 15 5
    endloop
  endfacet
  facet normal 0 0 -1
    outer loop
      vertex 27 15 5
      vertex 26 19 5
      vertex 27 19 5
    endloop
  endfacet
  facet normal 1 0 0
    outer loop
      vertex 7 27 4
      vertex 7 27 1
      vertex 7 32 1
    endloop
  endfacet
  facet normal 1 0 0
    outer loop
      vertex 7 32 4
      vertex 7 27 4
      vertex 7 32 1
    endloop
  endfacet
  facet normal -0.587785 0.809017 0
    outer loop
      vertex 12.3087 31.4314 1
      vertex 12.3087 31.4314 4
      vertex 13.0912 32 1
    endloop
  endfacet
  facet normal -0.587785 0.809017 0
    outer loop
      vertex 13.0912 32 1
      vertex 12.3087 31.4314 4
      vertex 13.0912 32 4
    endloop
  endfacet
  facet normal 0.935016 0.354605 0
    outer loop
      vertex 11.2325 22.0855 4
      vertex 11.9164 20.2822 4
      vertex 11.9164 20.2822 2
    endloop
  endfacet
  facet normal 0.935016 0.354605 0
    outer loop
      vertex 11.2325 22.0855 2
      vertex 11.2325 22.0855 4
      vertex 11.9164 20.2822 2
    endloop
  endfacet
  facet normal 0.992709 0.120536 0
    outer loop
      vertex 11 24 4
      vertex 11.2325 22.0855 4
      vertex 11.2325 22.0855 2
    endloop
  endfacet
  facet normal 0.992709 0.120536 0
    outer loop
      vertex 11 24 2
      vertex 11 24 4
      vertex 11.2325 22.0855 2
    endloop
  endfacet
  facet normal 0.992709 -0.120536 0
    outer loop
      vertex 11.2325 25.9145 2
      vertex 11.2325 25.9145 4
      vertex 11 24 4
    endloop
  endfacet
  facet normal 0.992709 -0.120536 0
    outer loop
      vertex 11 24 2
      vertex 11.2325 25.9145 2
      vertex 11 24 4
    endloop
  endfacet
  facet normal 0.935016 -0.354605 0
    outer loop
      vertex 11.9164 27.7178 2
      vertex 11.9164 27.7178 4
      vertex 11.2325 25.9145 4
    endloop
  endfacet
  facet normal 0.935016 -0.354605 0
    outer loop
      vertex 11.2325 25.9145 2
      vertex 11.9164 27.7178 2
      vertex 11.2325 25.9145 4
    endloop
  endfacet
  facet normal 0.822984 -0.568065 0
    outer loop
      vertex 13.0119 29.305 2
      vertex 13.0119 29.305 4
      vertex 11.9164 27.7178 4
    endloop
  endfacet
  facet normal 0.822984 -0.568065 0
    outer loop
      vertex 11.9164 27.7178 2
      vertex 13.0119 29.305 2
      vertex 11.9164 27.7178 4
    endloop
  endfacet
  facet normal 0.663123 -0.748511 0
    outer loop
      vertex 14.4555 30.5839 2
      vertex 14.4555 30.5839 4
      vertex 13.0119 29.305 4
    endloop
  endfacet
  facet normal 0.663123 -0.748511 0
    outer loop
      vertex 13.0119 29.305 2
      vertex 14.4555 30.5839 2
      vertex 13.0119 29.305 4
    endloop
  endfacet
  facet normal 0.464723 -0.885456 0
    outer loop
      vertex 16.1632 31.4801 2
      vertex 16.1632 31.4801 4
      vertex 14.4555 30.5839 4
    endloop
  endfacet
  facet normal 0.464723 -0.885456 0
    outer loop
      vertex 14.4555 30.5839 2
      vertex 16.1632 31.4801 2
      vertex 14.4555 30.5839 4
    endloop
  endfacet
  facet normal 0.239316 -0.970942 0
    outer loop
      vertex 18.0357 31.9417 2
      vertex 18.0357 31.9417 4
      vertex 16.1632 31.4801 4
    endloop
  endfacet
  facet normal 0.239316 -0.970942 0
    outer loop
      vertex 16.1632 31.4801 2
      vertex 18.0357 31.9417 2
      vertex 16.1632 31.4801 4
    endloop
  endfacet
  facet normal 0 -1 0
    outer loop
      vertex 19.9643 31.9417 2
      vertex 19.9643 31.9417 4
      vertex 18.0357 31.9417 4
    endloop
  endfacet
  facet normal 0 -1 0
    outer loop
      vertex 18.0357 31.9417 2
      vertex 19.9643 31.9417 2
      vertex 18.0357 31.9417 4
    endloop
  endfacet
  facet normal -0.239316 -0.970942 0
    outer loop
      vertex 21.8368 31.4801 2
      vertex 21.8368 31.4801 4
      vertex 19.9643 31.9417 4
    endloop
  endfacet
  facet normal -0.239316 -0.970942 0
    outer loop
      vertex 19.9643 31.9417 2
      vertex 21.8368 31.4801 2
      vertex 19.9643 31.9417 4
    endloop
  endfacet
  facet normal -0.464723 -0.885456 0
    outer loop
      vertex 23.5445 30.5839 2
      vertex 23.5445 30.5839 4
      vertex 21.8368 31.4801 4
    endloop
  endfacet
  facet normal -0.464723 -0.885456 0
    outer loop
      vertex 21.8368 31.4801 2
      vertex 23.5445 30.5839 2
      vertex 21.8368 31.4801 4
    endloop
  endfacet
  facet normal -0.663123 -0.748511 0
    outer loop
      vertex 24.9881 29.305 2
      vertex 24.9881 29.305 4
      vertex 23.5445 30.5839 4
    endloop
  endfacet
  facet normal -0.663123 -0.748511 0
    outer loop
      vertex 23.5445 30.5839 2
      vertex 24.9881 29.305 2
      vertex 23.5445 30.5839 4
    endloop
  endfacet
  facet normal -0.822984 -0.568065 0
    outer loop
      vertex 26.0836 27.7178 4
      vertex 24.9881 29.305 4
      vertex 26.0836 27.7178 2
    endloop
  endfacet
  facet normal -0.822984 -0.568065 0
    outer loop
      vertex 26.0836 27.7178 2
      vertex 24.9881 29.305 4
      vertex 24.9881 29.305 2
    endloop
  endfacet
  facet normal -0.935016 -0.354605 0
    outer loop
      vertex 26.7675 25.9145 4
      vertex 26.0836 27.7178 4
      vertex 26.7675 25.9145 2
    endloop
  endfacet
  facet normal -0.935016 -0.354605 0
    outer loop
      vertex 26.7675 25.9145 2
      vertex 26.0836 27.7178 4
      vertex 26.0836 27.7178 2
    endloop
  endfacet
  facet normal -0.935016 0.354605 0
    outer loop
      vertex 26.7675 22.0855 4
      vertex 26.7675 22.0855 2
      vertex 26.0836 20.2822 4
    endloop
  endfacet
  facet normal -0.935016 0.354605 0
    outer loop
      vertex 26.0836 20.2822 4
      vertex 26.7675 22.0855 2
      vertex 26.0836 20.2822 2
    endloop
  endfacet
  facet normal -0.822984 0.568065 0
    outer loop
      vertex 26.0836 20.2822 4
      vertex 26.0836 20.2822 2
      vertex 24.9881 18.695 4
    endloop
  endfacet
  facet normal -0.822984 0.568065 0
    outer loop
      vertex 24.9881 18.695 4
      vertex 26.0836 20.2822 2
      vertex 24.9881 18.695 2
    endloop
  endfacet
  facet normal -0.663123 0.748511 0
    outer loop
      vertex 24.9881 18.695 4
      vertex 24.9881 18.695 2
      vertex 23.5445 17.4161 4
    endloop
  endfacet
  facet normal -0.663123 0.748511 0
    outer loop
      vertex 23.5445 17.4161 4
      vertex 24.9881 18.695 2
      vertex 23.5445 17.4161 2
    endloop
  endfacet
  facet normal -0.464723 0.885456 0
    outer loop
      vertex 23.5445 17.4161 4
      vertex 23.5445 17.4161 2
      vertex 21.8368 16.5199 4
    endloop
  endfacet
  facet normal -0.464723 0.885456 0
    outer loop
      vertex 21.8368 16.5199 4
      vertex 23.5445 17.4161 2
      vertex 21.8368 16.5199 2
    endloop
  endfacet
  facet normal -0.239316 0.970942 0
    outer loop
      vertex 21.8368 16.5199 4
      vertex 21.8368 16.5199 2
      vertex 19.9643 16.0583 4
    endloop
  endfacet
  facet normal -0.239316 0.970942 0
    outer loop
      vertex 19.9643 16.0583 4
      vertex 21.8368 16.5199 2
      vertex 19.9643 16.0583 2
    endloop
  endfacet
  facet normal 0 1 0
    outer loop
      vertex 19.9643 16.0583 4
      vertex 19.9643 16.0583 2
      vertex 18.0357 16.0583 4
    endloop
  endfacet
  facet normal 0 1 0
    outer loop
      vertex 18.0357 16.0583 4
      vertex 19.9643 16.0583 2
      vertex 18.0357 16.0583 2
    endloop
  endfacet
  facet normal 0.239316 0.970942 0
    outer loop
      vertex 18.0357 16.0583 4
      vertex 18.0357 16.0583 2
      vertex 16.1632 16.5199 4
    endloop
  endfacet
  facet normal 0.239316 0.970942 0
    outer loop
      vertex 16.1632 16.5199 4
      vertex 18.0357 16.0583 2
      vertex 16.1632 16.5199 2
    endloop
  endfacet
  facet normal 0.464723 0.885456 0
    outer loop
      vertex 16.1632 16.5199 4
      vertex 16.1632 16.5199 2
      vertex 14.4555 17.4161 4
    endloop
  endfacet
  facet normal 0.464723 0.885456 0
    outer loop
      vertex 14.4555 17.4161 4
      vertex 16.1632 16.5199 2
      vertex 14.4555 17.4161 2
    endloop
  endfacet
  facet normal 0.663123 0.748511 0
    outer loop
      vertex 14.4555 17.4161 4
      vertex 14.4555 17.4161 2
      vertex 13.0119 18.695 4
    endloop
  endfacet
  facet normal 0.663123 0.748511 0
    outer loop
      vertex 13.0119 18.695 4
      vertex 14.4555 17.4161 2
      vertex 13.0119 18.695 2
    endloop
  endfacet
  facet normal 0.822984 0.568065 0
    outer loop
      vertex 11.9164 20.2822 4
      vertex 13.0119 18.695 4
      vertex 13.0119 18.695 2
    endloop
  endfacet
  facet normal 0.822984 0.568065 0
    outer loop
      vertex 11.9164 20.2822 2
      vertex 11.9164 20.2822 4
      vertex 13.0119 18.695 2
    endloop
  endfacet
  facet normal -0.743145 0.669131 0
    outer loop
      vertex 10.9098 29.8779 1
      vertex 10.9098 29.8779 4
      vertex 12.3087 31.4314 1
    endloop
  endfacet
  facet normal -0.743145 0.669131 0
    outer loop
      vertex 12.3087 31.4314 1
      vertex 10.9098 29.8779 4
      vertex 12.3087 31.4314 4
    endloop
  endfacet
  facet normal -0.866025 0.5 0
    outer loop
      vertex 9.86454 28.0674 1
      vertex 9.86454 28.0674 4
      vertex 10.9098 29.8779 1
    endloop
  endfacet
  facet normal -0.866025 0.5 0
    outer loop
      vertex 10.9098 29.8779 1
      vertex 9.86454 28.0674 4
      vertex 10.9098 29.8779 4
    endloop
  endfacet
  facet normal -0.951057 0.309017 0
    outer loop
      vertex 9.21852 26.0791 1
      vertex 9.21852 26.0791 4
      vertex 9.86454 28.0674 1
    endloop
  endfacet
  facet normal -0.951057 0.309017 0
    outer loop
      vertex 9.86454 28.0674 1
      vertex 9.21852 26.0791 4
      vertex 9.86454 28.0674 4
    endloop
  endfacet
  facet normal -0.994522 0.104528 0
    outer loop
      vertex 9 24 1
      vertex 9 24 4
      vertex 9.21852 26.0791 1
    endloop
  endfacet
  facet normal -0.994522 0.104528 0
    outer loop
      vertex 9.21852 26.0791 1
      vertex 9 24 4
      vertex 9.21852 26.0791 4
    endloop
  endfacet
  facet normal -0.994522 -0.104528 0
    outer loop
      vertex 9 24 1
      vertex 9.21852 21.9209 1
      vertex 9 24 4
    endloop
  endfacet
  facet normal -0.994522 -0.104528 0
    outer loop
      vertex 9 24 4
      vertex 9.21852 21.9209 1
      vertex 9.21852 21.9209 4
    endloop
  endfacet
  facet normal -0.951057 -0.309017 0
    outer loop
      vertex 9.21852 21.9209 1
      vertex 9.86454 19.9326 1
      vertex 9.21852 21.9209 4
    endloop
  endfacet
  facet normal -0.951057 -0.309017 0
    outer loop
      vertex 9.21852 21.9209 4
      vertex 9.86454 19.9326 1
      vertex 9.86454 19.9326 4
    endloop
  endfacet
  facet normal -0.866025 -0.5 0
    outer loop
      vertex 9.86454 19.9326 1
      vertex 10.9098 18.1221 1
      vertex 9.86454 19.9326 4
    endloop
  endfacet
  facet normal -0.866025 -0.5 0
    outer loop
      vertex 9.86454 19.9326 4
      vertex 10.9098 18.1221 1
      vertex 10.9098 18.1221 4
    endloop
  endfacet
  facet normal -0.743145 -0.669131 0
    outer loop
      vertex 10.9098 18.1221 1
      vertex 12.3087 16.5686 1
      vertex 10.9098 18.1221 4
    endloop
  endfacet
  facet normal -0.743145 -0.669131 0
    outer loop
      vertex 10.9098 18.1221 4
      vertex 12.3087 16.5686 1
      vertex 12.3087 16.5686 4
    endloop
  endfacet
  facet normal -0.587785 -0.809017 0
    outer loop
      vertex 12.3087 16.5686 4
      vertex 12.3087 16.5686 1
      vertex 14 15.3397 1
    endloop
  endfacet
  facet normal -0.587785 -0.809017 0
    outer loop
      vertex 14 15.3397 4
      vertex 12.3087 16.5686 4
      vertex 14 15.3397 1
    endloop
  endfacet
  facet normal -0.406737 -0.913545 0
    outer loop
      vertex 14 15.3397 4
      vertex 14 15.3397 1
      vertex 15.9098 14.4894 1
    endloop
  endfacet
  facet normal -0.406737 -0.913545 0
    outer loop
      vertex 15.9098 14.4894 4
      vertex 14 15.3397 4
      vertex 15.9098 14.4894 1
    endloop
  endfacet
  facet normal -0.207912 -0.978148 0
    outer loop
      vertex 15.9098 14.4894 4
      vertex 15.9098 14.4894 1
      vertex 17.9547 14.0548 1
    endloop
  endfacet
  facet normal -0.207912 -0.978148 0
    outer loop
      vertex 17.9547 14.0548 4
      vertex 15.9098 14.4894 4
      vertex 17.9547 14.0548 1
    endloop
  endfacet
  facet normal 0 -1 0
    outer loop
      vertex 17.9547 14.0548 4
      vertex 17.9547 14.0548 1
      vertex 20.0453 14.0548 1
    endloop
  endfacet
  facet normal 0 -1 0
    outer loop
      vertex 20.0453 14.0548 4
      vertex 17.9547 14.0548 4
      vertex 20.0453 14.0548 1
    endloop
  endfacet
  facet normal 0.207912 -0.978148 0
    outer loop
      vertex 20.0453 14.0548 4
      vertex 20.0453 14.0548 1
      vertex 22.0902 14.4894 1
    endloop
  endfacet
  facet normal 0.207912 -0.978148 0
    outer loop
      vertex 22.0902 14.4894 4
      vertex 20.0453 14.0548 4
      vertex 22.0902 14.4894 1
    endloop
  endfacet
  facet normal 0.406737 -0.913545 0
    outer loop
      vertex 22.0902 14.4894 4
      vertex 22.0902 14.4894 1
      vertex 24 15.3397 1
    endloop
  endfacet
  facet normal 0.406737 -0.913545 0
    outer loop
      vertex 24 15.3397 4
      vertex 22.0902 14.4894 4
      vertex 24 15.3397 1
    endloop
  endfacet
  facet normal 0.587785 -0.809017 0
    outer loop
      vertex 24 15.3397 4
      vertex 24 15.3397 1
      vertex 25.6913 16.5686 1
    endloop
  endfacet
  facet normal 0.587785 -0.809017 0
    outer loop
      vertex 25.6913 16.5686 4
      vertex 24 15.3397 4
      vertex 25.6913 16.5686 1
    endloop
  endfacet
endsolid OpenSCAD_Model
